<mxfile host="app.diagrams.net" agent="Mozilla/5.0 (Windows NT 10.0; Win64; x64) AppleWebKit/537.36 (KHTML, like Gecko) Chrome/130.0.0.0 Safari/537.36 OPR/115.0.0.0" version="26.0.9">
  <diagram name="PÃ¡gina-1" id="Si3tAkWzTjLPYDEmZD-8">
    <mxGraphModel>
      <root>
        <mxCell id="0" />
        <mxCell id="1" parent="0" />
        <mxCell id="2" value="Taskboard" style="whiteSpace=wrap;strokeWidth=2;verticalAlign=top;" vertex="1" parent="1">
          <mxGeometry x="8" y="8" width="549" height="129" as="geometry" />
        </mxCell>
        <mxCell id="3" value="Section A" style="whiteSpace=wrap;strokeWidth=2;" vertex="1" parent="2">
          <mxGeometry x="43" y="46" width="126" height="54" as="geometry" />
        </mxCell>
        <mxCell id="4" value="Section B" style="whiteSpace=wrap;strokeWidth=2;" vertex="1" parent="2">
          <mxGeometry x="219" y="46" width="126" height="54" as="geometry" />
        </mxCell>
        <mxCell id="5" value="Section C" style="whiteSpace=wrap;strokeWidth=2;" vertex="1" parent="2">
          <mxGeometry x="395" y="46" width="127" height="54" as="geometry" />
        </mxCell>
        <mxCell id="6" value="TaskHighlight" style="whiteSpace=wrap;strokeWidth=2;verticalAlign=top;" vertex="1" parent="1">
          <mxGeometry x="9" y="187" width="547" height="129" as="geometry" />
        </mxCell>
        <mxCell id="7" value="Section 1" style="whiteSpace=wrap;strokeWidth=2;" vertex="1" parent="6">
          <mxGeometry x="43" y="46" width="126" height="54" as="geometry" />
        </mxCell>
        <mxCell id="8" value="Section 2" style="whiteSpace=wrap;strokeWidth=2;" vertex="1" parent="6">
          <mxGeometry x="219" y="46" width="126" height="54" as="geometry" />
        </mxCell>
        <mxCell id="9" value="Section 3" style="whiteSpace=wrap;strokeWidth=2;" vertex="1" parent="6">
          <mxGeometry x="395" y="46" width="126" height="54" as="geometry" />
        </mxCell>
      </root>
    </mxGraphModel>
  </diagram>
</mxfile>
